G04 #@! TF.FileFunction,Legend,Top*
%FSLAX46Y46*%
G04 Gerber Fmt 4.6, Leading zero omitted, Abs format (unit mm)*
G04 Created by KiCad (PCBNEW 4.0.5) date 04/21/17 20:31:44*
%MOMM*%
%LPD*%
G01*
G04 APERTURE LIST*
%ADD10C,0.100000*%
%ADD11C,0.125000*%
%ADD12C,0.150000*%
%ADD13C,0.120000*%
G04 APERTURE END LIST*
D10*
D11*
X142213081Y-86024765D02*
X142927367Y-86024765D01*
X143070224Y-86048575D01*
X143165462Y-86096194D01*
X143213081Y-86167622D01*
X143213081Y-86215241D01*
X143165462Y-85810480D02*
X143213081Y-85739051D01*
X143213081Y-85620004D01*
X143165462Y-85572385D01*
X143117843Y-85548575D01*
X143022605Y-85524766D01*
X142927367Y-85524766D01*
X142832129Y-85548575D01*
X142784510Y-85572385D01*
X142736890Y-85620004D01*
X142689271Y-85715242D01*
X142641652Y-85762861D01*
X142594033Y-85786670D01*
X142498795Y-85810480D01*
X142403557Y-85810480D01*
X142308319Y-85786670D01*
X142260700Y-85762861D01*
X142213081Y-85715242D01*
X142213081Y-85596194D01*
X142260700Y-85524766D01*
X142213081Y-85381909D02*
X142213081Y-85096195D01*
X143213081Y-85239052D02*
X142213081Y-85239052D01*
X143213081Y-84691433D02*
X143213081Y-84929528D01*
X142213081Y-84929528D01*
X143213081Y-84524766D02*
X142213081Y-84524766D01*
X143213081Y-84286671D02*
X142213081Y-84286671D01*
X143213081Y-84000957D01*
X142213081Y-84000957D01*
X143213081Y-83762861D02*
X142213081Y-83762861D01*
X143213081Y-83477147D02*
X142641652Y-83691433D01*
X142213081Y-83477147D02*
X142784510Y-83762861D01*
X142546414Y-82929528D02*
X143213081Y-82810481D01*
X142546414Y-82691433D01*
X143213081Y-82239053D02*
X143213081Y-82524767D01*
X143213081Y-82381910D02*
X142213081Y-82381910D01*
X142355938Y-82429529D01*
X142451176Y-82477148D01*
X142498795Y-82524767D01*
X143117843Y-82024767D02*
X143165462Y-82000958D01*
X143213081Y-82024767D01*
X143165462Y-82048577D01*
X143117843Y-82024767D01*
X143213081Y-82024767D01*
X142213081Y-81691434D02*
X142213081Y-81643815D01*
X142260700Y-81596196D01*
X142308319Y-81572387D01*
X142403557Y-81548577D01*
X142594033Y-81524768D01*
X142832129Y-81524768D01*
X143022605Y-81548577D01*
X143117843Y-81572387D01*
X143165462Y-81596196D01*
X143213081Y-81643815D01*
X143213081Y-81691434D01*
X143165462Y-81739053D01*
X143117843Y-81762863D01*
X143022605Y-81786672D01*
X142832129Y-81810482D01*
X142594033Y-81810482D01*
X142403557Y-81786672D01*
X142308319Y-81762863D01*
X142260700Y-81739053D01*
X142213081Y-81691434D01*
D12*
X142257800Y-80679100D02*
X142257800Y-80179100D01*
X141307800Y-80179100D02*
X141307800Y-80679100D01*
X143887000Y-77693500D02*
X143387000Y-77693500D01*
X143387000Y-78643500D02*
X143887000Y-78643500D01*
X155224200Y-87269300D02*
X154724200Y-87269300D01*
X154724200Y-88219300D02*
X155224200Y-88219300D01*
X149356000Y-90573880D02*
X149856000Y-90573880D01*
X149856000Y-89623880D02*
X149356000Y-89623880D01*
X154998400Y-83074700D02*
X154998400Y-83574700D01*
X155948400Y-83574700D02*
X155948400Y-83074700D01*
X153271240Y-79218600D02*
X153271240Y-78718600D01*
X152321240Y-78718600D02*
X152321240Y-79218600D01*
X157543520Y-79221140D02*
X157543520Y-78721140D01*
X156593520Y-78721140D02*
X156593520Y-79221140D01*
X149733000Y-76402260D02*
X149483000Y-76602260D01*
X149983000Y-76602260D02*
X149733000Y-76402260D01*
X150258000Y-76752260D02*
X150258000Y-75702260D01*
X149208000Y-76752260D02*
X149208000Y-75702260D01*
X151858980Y-76387020D02*
X151608980Y-76587020D01*
X152108980Y-76587020D02*
X151858980Y-76387020D01*
X152383980Y-76737020D02*
X152383980Y-75687020D01*
X151333980Y-76737020D02*
X151333980Y-75687020D01*
X138074400Y-78346820D02*
X138324400Y-78146820D01*
X137824400Y-78146820D02*
X138074400Y-78346820D01*
X137549400Y-77996820D02*
X137549400Y-79046820D01*
X138599400Y-77996820D02*
X138599400Y-79046820D01*
X147584160Y-76604800D02*
X147834160Y-76404800D01*
X147334160Y-76404800D02*
X147584160Y-76604800D01*
X147059160Y-76254800D02*
X147059160Y-77304800D01*
X148109160Y-76254800D02*
X148109160Y-77304800D01*
X145448020Y-76402260D02*
X145198020Y-76602260D01*
X145698020Y-76602260D02*
X145448020Y-76402260D01*
X145973020Y-76752260D02*
X145973020Y-75702260D01*
X144923020Y-76752260D02*
X144923020Y-75702260D01*
X134284880Y-79474180D02*
X134284880Y-88174180D01*
X140689880Y-79474180D02*
X140689880Y-88174180D01*
X140689880Y-88174180D02*
X134284880Y-88174180D01*
X135514880Y-88174180D02*
X135514880Y-79474180D01*
X134284880Y-79474180D02*
X140689880Y-79474180D01*
D13*
X138150600Y-77450300D02*
X138270600Y-77450300D01*
X138270600Y-77450300D02*
X138270600Y-74670300D01*
X138270600Y-74670300D02*
X138150600Y-74670300D01*
X138150600Y-74670300D02*
X138150600Y-77450300D01*
X136880600Y-77450300D02*
X135490600Y-77450300D01*
X135490600Y-77450300D02*
X135490600Y-76060300D01*
X138150600Y-91674300D02*
X138270600Y-91674300D01*
X138270600Y-91674300D02*
X138270600Y-88894300D01*
X138270600Y-88894300D02*
X138150600Y-88894300D01*
X138150600Y-88894300D02*
X138150600Y-91674300D01*
X136880600Y-91674300D02*
X135490600Y-91674300D01*
X135490600Y-91674300D02*
X135490600Y-90284300D01*
X143478200Y-89893900D02*
X143097200Y-89893900D01*
X141776400Y-89893900D02*
X141776400Y-89157300D01*
X142157400Y-89893900D02*
X141776400Y-89893900D01*
X143478200Y-88801700D02*
X143478200Y-89893900D01*
X142157400Y-89893900D02*
X141776400Y-89893900D01*
X142157400Y-89893900D02*
X141776400Y-89893900D01*
X142157400Y-89893900D02*
X141776400Y-89893900D01*
D12*
X151329880Y-76742100D02*
X151329880Y-76242100D01*
X150279880Y-76242100D02*
X150279880Y-76742100D01*
X153433000Y-76724320D02*
X153433000Y-76224320D01*
X152383000Y-76224320D02*
X152383000Y-76724320D01*
X137532600Y-78469300D02*
X137532600Y-77969300D01*
X136482600Y-77969300D02*
X136482600Y-78469300D01*
X154995100Y-83556920D02*
X154995100Y-83056920D01*
X153945100Y-83056920D02*
X153945100Y-83556920D01*
X153927320Y-81245900D02*
X153927320Y-81745900D01*
X154977320Y-81745900D02*
X154977320Y-81245900D01*
X156016180Y-81542700D02*
X156016180Y-81042700D01*
X154966180Y-81042700D02*
X154966180Y-81542700D01*
X148120880Y-76254800D02*
X148120880Y-76754800D01*
X149170880Y-76754800D02*
X149170880Y-76254800D01*
X154981420Y-84845080D02*
X154981420Y-85345080D01*
X156031420Y-85345080D02*
X156031420Y-84845080D01*
X153909540Y-84837460D02*
X153909540Y-85337460D01*
X154959540Y-85337460D02*
X154959540Y-84837460D01*
X145977120Y-76252260D02*
X145977120Y-76752260D01*
X147027120Y-76752260D02*
X147027120Y-76252260D01*
X147846860Y-89589120D02*
X147346860Y-89589120D01*
X147346860Y-90639120D02*
X147846860Y-90639120D01*
X144224400Y-87371700D02*
X143724400Y-87371700D01*
X143724400Y-88421700D02*
X144224400Y-88421700D01*
X143140620Y-80679780D02*
X143640620Y-80679780D01*
X143640620Y-79629780D02*
X143140620Y-79629780D01*
X141622000Y-89823100D02*
X141622000Y-89323100D01*
X140572000Y-89323100D02*
X140572000Y-89823100D01*
X145454560Y-90634040D02*
X145954560Y-90634040D01*
X145954560Y-89584040D02*
X145454560Y-89584040D01*
X140529800Y-89823100D02*
X140529800Y-89323100D01*
X139479800Y-89323100D02*
X139479800Y-89823100D01*
X143645400Y-89272300D02*
X143645400Y-89772300D01*
X144695400Y-89772300D02*
X144695400Y-89272300D01*
X143696200Y-76115100D02*
X143696200Y-76615100D01*
X144746200Y-76615100D02*
X144746200Y-76115100D01*
X142502400Y-76115100D02*
X142502400Y-76615100D01*
X143552400Y-76615100D02*
X143552400Y-76115100D01*
D13*
X142087240Y-78189660D02*
X142087240Y-76389660D01*
X138867240Y-76389660D02*
X138867240Y-78839660D01*
D12*
X152261740Y-87510980D02*
X152261740Y-87060980D01*
X145011740Y-87510980D02*
X145011740Y-86985980D01*
X145011740Y-80260980D02*
X145011740Y-80785980D01*
X152261740Y-80260980D02*
X152261740Y-80785980D01*
X152261740Y-87510980D02*
X151736740Y-87510980D01*
X152261740Y-80260980D02*
X151736740Y-80260980D01*
X145011740Y-80260980D02*
X145536740Y-80260980D01*
X145011740Y-87510980D02*
X145536740Y-87510980D01*
X152261740Y-87060980D02*
X153636740Y-87060980D01*
D13*
X154390000Y-78049080D02*
X155490000Y-78049080D01*
X154390000Y-79949080D02*
X155490000Y-79949080D01*
X153340000Y-78099080D02*
X153340000Y-79899080D01*
D12*
X162290820Y-88335240D02*
X162590820Y-88335240D01*
X162590820Y-88335240D02*
X162590820Y-79335240D01*
X162590820Y-79335240D02*
X162290820Y-79335240D01*
X159290820Y-88335240D02*
X158290820Y-88335240D01*
X158290820Y-88335240D02*
X158290820Y-87135240D01*
X159290820Y-79335240D02*
X158290820Y-79335240D01*
X158290820Y-79335240D02*
X158290820Y-80535240D01*
X157490820Y-87235240D02*
X157240820Y-87735240D01*
X157240820Y-87735240D02*
X157740820Y-87735240D01*
X157740820Y-87735240D02*
X157490820Y-87235240D01*
D13*
X161892600Y-89014300D02*
X161892600Y-88894300D01*
X161892600Y-88894300D02*
X159112600Y-88894300D01*
X159112600Y-88894300D02*
X159112600Y-89014300D01*
X159112600Y-89014300D02*
X161892600Y-89014300D01*
X161892600Y-90284300D02*
X161892600Y-91674300D01*
X161892600Y-91674300D02*
X160502600Y-91674300D01*
X159112600Y-77330300D02*
X159112600Y-77450300D01*
X159112600Y-77450300D02*
X161892600Y-77450300D01*
X161892600Y-77450300D02*
X161892600Y-77330300D01*
X161892600Y-77330300D02*
X159112600Y-77330300D01*
X159112600Y-76060300D02*
X159112600Y-74670300D01*
X159112600Y-74670300D02*
X160502600Y-74670300D01*
X156572600Y-77330300D02*
X156572600Y-77450300D01*
X156572600Y-77450300D02*
X159352600Y-77450300D01*
X159352600Y-77450300D02*
X159352600Y-77330300D01*
X159352600Y-77330300D02*
X156572600Y-77330300D01*
X156572600Y-76060300D02*
X156572600Y-74670300D01*
X156572600Y-74670300D02*
X157962600Y-74670300D01*
X159352600Y-89014300D02*
X159352600Y-88894300D01*
X159352600Y-88894300D02*
X156572600Y-88894300D01*
X156572600Y-88894300D02*
X156572600Y-89014300D01*
X156572600Y-89014300D02*
X159352600Y-89014300D01*
X159352600Y-90284300D02*
X159352600Y-91674300D01*
X159352600Y-91674300D02*
X157962600Y-91674300D01*
X154272600Y-89014300D02*
X154272600Y-88894300D01*
X154272600Y-88894300D02*
X151492600Y-88894300D01*
X151492600Y-88894300D02*
X151492600Y-89014300D01*
X151492600Y-89014300D02*
X154272600Y-89014300D01*
X154272600Y-90284300D02*
X154272600Y-91674300D01*
X154272600Y-91674300D02*
X152882600Y-91674300D01*
X156812600Y-89014300D02*
X156812600Y-88894300D01*
X156812600Y-88894300D02*
X154032600Y-88894300D01*
X154032600Y-88894300D02*
X154032600Y-89014300D01*
X154032600Y-89014300D02*
X156812600Y-89014300D01*
X156812600Y-90284300D02*
X156812600Y-91674300D01*
X156812600Y-91674300D02*
X155422600Y-91674300D01*
X154032600Y-77330300D02*
X154032600Y-77450300D01*
X154032600Y-77450300D02*
X156812600Y-77450300D01*
X156812600Y-77450300D02*
X156812600Y-77330300D01*
X156812600Y-77330300D02*
X154032600Y-77330300D01*
X154032600Y-76060300D02*
X154032600Y-74670300D01*
X154032600Y-74670300D02*
X155422600Y-74670300D01*
M02*
