M48
;DRILL file {KiCad 4.0.5} date 04/21/17 20:31:48
;FORMAT={-:-/ absolute / metric / decimal}
FMAT,2
METRIC,TZ
T1C0.300
T2C0.500
T3C0.550
T4C1.000
%
G90
G05
M71
T1
X136.22Y-78.676
X140.259Y-77.126
X140.741Y-80.759
X140.794Y-85.761
X140.794Y-86.578
X140.937Y-85.207
X140.995Y-77.126
X141.097Y-81.115
X141.326Y-85.595
X141.39Y-86.585
X141.503Y-81.623
X141.58Y-77.126
X141.963Y-86.099
X142.011Y-87.605
X142.265Y-77.126
X142.392Y-77.846
X143.045Y-87.899
X143.13Y-86.668
X143.285Y-89.609
X143.332Y-90.259
X144.221Y-77.33
X145.11Y-87.922
X145.409Y-86.119
X145.459Y-85.184
X145.567Y-78.096
X146.442Y-83.572
X146.695Y-78.297
X146.736Y-86.982
X147.142Y-90.691
X147.193Y-81.039
X147.233Y-77.789
X147.269Y-82.715
X148.31Y-76.354
X149.049Y-77.543
X149.073Y-90.614
X149.86Y-81.216
X150.433Y-82.655
X150.444Y-83.711
X151.7Y-78.199
X152.248Y-79.566
X153.568Y-80.962
X154.249Y-82.636
X154.452Y-81.046
X155.924Y-80.813
X156.185Y-84.521
X156.185Y-87.744
X156.357Y-85.926
X156.402Y-85.315
X157.426Y-79.96
X158.993Y-83.825
X159.361Y-82.275
X159.498Y-84.587
X160.477Y-81.878
T4
X136.881Y-76.06
X136.881Y-90.284
X152.883Y-90.284
X155.423Y-76.06
X155.423Y-90.284
X157.963Y-76.06
X157.963Y-90.284
X160.503Y-76.06
X160.503Y-90.284
T2
X136.64Y-80.324G85X137.29Y-80.324
G05
X136.64Y-87.324G85X137.29Y-87.324
G05
T3
X139.665Y-81.174G85X139.665Y-81.474
G05
X139.665Y-86.174G85X139.665Y-86.474
G05
T0
M30
