G04 #@! TF.FileFunction,Soldermask,Top*
%FSLAX46Y46*%
G04 Gerber Fmt 4.6, Leading zero omitted, Abs format (unit mm)*
G04 Created by KiCad (PCBNEW 4.0.5) date 04/21/17 20:31:44*
%MOMM*%
%LPD*%
G01*
G04 APERTURE LIST*
%ADD10C,0.100000*%
%ADD11R,0.900000X1.000000*%
%ADD12R,1.000000X0.900000*%
%ADD13R,1.000000X0.800000*%
%ADD14R,1.750000X0.800000*%
%ADD15O,1.350000X1.650000*%
%ADD16O,1.950000X1.400000*%
%ADD17R,2.100000X2.100000*%
%ADD18R,0.720000X0.800000*%
%ADD19R,0.820000X0.900000*%
%ADD20R,0.800000X1.000000*%
%ADD21R,1.050000X1.460000*%
%ADD22R,1.700000X0.650000*%
%ADD23R,0.650000X1.700000*%
%ADD24R,0.900000X2.400000*%
%ADD25R,1.800000X1.000000*%
%ADD26R,2.400000X1.400000*%
G04 APERTURE END LIST*
D10*
D11*
X141782800Y-79879100D03*
X141782800Y-80979100D03*
D12*
X143087000Y-78168500D03*
X144187000Y-78168500D03*
X154424200Y-87744300D03*
X155524200Y-87744300D03*
X150156000Y-90098880D03*
X149056000Y-90098880D03*
D11*
X155473400Y-83874700D03*
X155473400Y-82774700D03*
X152796240Y-78418600D03*
X152796240Y-79518600D03*
X157068520Y-78421140D03*
X157068520Y-79521140D03*
D13*
X149733000Y-76052260D03*
X149733000Y-76952260D03*
X151858980Y-76037020D03*
X151858980Y-76937020D03*
X138074400Y-78696820D03*
X138074400Y-77796820D03*
X147584160Y-76954800D03*
X147584160Y-76054800D03*
X145448020Y-76052260D03*
X145448020Y-76952260D03*
D14*
X139664880Y-82524180D03*
X139664880Y-83174180D03*
X139664880Y-83824180D03*
X139664880Y-84474180D03*
X139664880Y-85124180D03*
D15*
X139664880Y-81324180D03*
X139664880Y-86324180D03*
D16*
X136964880Y-80324180D03*
X136964880Y-87324180D03*
D17*
X136880600Y-76060300D03*
X136880600Y-90284300D03*
D18*
X143021000Y-89004900D03*
X142221000Y-89004900D03*
D19*
X142621000Y-90004900D03*
D13*
X150804880Y-76042100D03*
X150804880Y-76942100D03*
X152908000Y-76024320D03*
X152908000Y-76924320D03*
X137007600Y-77769300D03*
X137007600Y-78669300D03*
X154470100Y-82856920D03*
X154470100Y-83756920D03*
X154452320Y-81945900D03*
X154452320Y-81045900D03*
X155491180Y-80842700D03*
X155491180Y-81742700D03*
X148645880Y-76954800D03*
X148645880Y-76054800D03*
X155506420Y-85545080D03*
X155506420Y-84645080D03*
X154434540Y-85537460D03*
X154434540Y-84637460D03*
X146502120Y-76952260D03*
X146502120Y-76052260D03*
D20*
X147146860Y-90114120D03*
X148046860Y-90114120D03*
X143524400Y-87896700D03*
X144424400Y-87896700D03*
X143840620Y-80154780D03*
X142940620Y-80154780D03*
D13*
X141097000Y-89123100D03*
X141097000Y-90023100D03*
D20*
X146154560Y-90109040D03*
X145254560Y-90109040D03*
D13*
X140004800Y-89123100D03*
X140004800Y-90023100D03*
X144170400Y-89972300D03*
X144170400Y-89072300D03*
X144221200Y-76815100D03*
X144221200Y-75915100D03*
X143027400Y-76815100D03*
X143027400Y-75915100D03*
D21*
X139527240Y-78389660D03*
X140477240Y-78389660D03*
X141427240Y-78389660D03*
X141427240Y-76189660D03*
X139527240Y-76189660D03*
D22*
X152986740Y-86635980D03*
X152986740Y-86135980D03*
X152986740Y-85635980D03*
X152986740Y-85135980D03*
X152986740Y-84635980D03*
X152986740Y-84135980D03*
X152986740Y-83635980D03*
X152986740Y-83135980D03*
X152986740Y-82635980D03*
X152986740Y-82135980D03*
X152986740Y-81635980D03*
X152986740Y-81135980D03*
D23*
X151386740Y-79535980D03*
X150886740Y-79535980D03*
X150386740Y-79535980D03*
X149886740Y-79535980D03*
X149386740Y-79535980D03*
X148886740Y-79535980D03*
X148386740Y-79535980D03*
X147886740Y-79535980D03*
X147386740Y-79535980D03*
X146886740Y-79535980D03*
X146386740Y-79535980D03*
X145886740Y-79535980D03*
D22*
X144286740Y-81135980D03*
X144286740Y-81635980D03*
X144286740Y-82135980D03*
X144286740Y-82635980D03*
X144286740Y-83135980D03*
X144286740Y-83635980D03*
X144286740Y-84135980D03*
X144286740Y-84635980D03*
X144286740Y-85135980D03*
X144286740Y-85635980D03*
X144286740Y-86135980D03*
X144286740Y-86635980D03*
D23*
X145886740Y-88235980D03*
X146386740Y-88235980D03*
X146886740Y-88235980D03*
X147386740Y-88235980D03*
X147886740Y-88235980D03*
X148386740Y-88235980D03*
X148886740Y-88235980D03*
X149386740Y-88235980D03*
X149886740Y-88235980D03*
X150386740Y-88235980D03*
X150886740Y-88235980D03*
X151386740Y-88235980D03*
D24*
X153740000Y-78999080D03*
X154940000Y-78999080D03*
X156140000Y-78999080D03*
D25*
X157715820Y-86335240D03*
X157715820Y-85335240D03*
X157715820Y-84335240D03*
X157715820Y-83335240D03*
X157715820Y-82335240D03*
X157715820Y-81335240D03*
D26*
X160840820Y-79935240D03*
X160840820Y-87735240D03*
D17*
X160502600Y-90284300D03*
X160502600Y-76060300D03*
X157962600Y-76060300D03*
X157962600Y-90284300D03*
X152882600Y-90284300D03*
X155422600Y-90284300D03*
X155422600Y-76060300D03*
M02*
