G04 #@! TF.FileFunction,Copper,L2,Bot,Signal*
%FSLAX46Y46*%
G04 Gerber Fmt 4.6, Leading zero omitted, Abs format (unit mm)*
G04 Created by KiCad (PCBNEW 4.0.5) date 04/21/17 20:31:44*
%MOMM*%
%LPD*%
G01*
G04 APERTURE LIST*
%ADD10C,0.100000*%
%ADD11O,0.950000X1.250000*%
%ADD12O,1.550000X1.000000*%
%ADD13R,1.700000X1.700000*%
%ADD14C,0.500000*%
%ADD15C,0.508000*%
%ADD16C,0.152000*%
%ADD17C,0.300000*%
%ADD18C,0.254000*%
G04 APERTURE END LIST*
D10*
D11*
X139664880Y-81324180D03*
X139664880Y-86324180D03*
D12*
X136964880Y-80324180D03*
X136964880Y-87324180D03*
D13*
X136880600Y-76060300D03*
X136880600Y-90284300D03*
X160502600Y-90284300D03*
X160502600Y-76060300D03*
X157962600Y-76060300D03*
X157962600Y-90284300D03*
X152882600Y-90284300D03*
X155422600Y-90284300D03*
X155422600Y-76060300D03*
D14*
X148310121Y-76354382D03*
X157426347Y-79959860D03*
X156402496Y-85315134D03*
X142391553Y-77846202D03*
X146695418Y-78296861D03*
X142011400Y-87604600D03*
X155923824Y-80813500D03*
X152247600Y-79565500D03*
X145408730Y-86118700D03*
X141503400Y-81622900D03*
X140741400Y-80759300D03*
X141097000Y-81114900D03*
X144221200Y-77330300D03*
X143332200Y-90258900D03*
X147142200Y-90690700D03*
X149072600Y-90614500D03*
X136220200Y-78676500D03*
X141963026Y-86098816D03*
X141390293Y-86584973D03*
X140794080Y-85760560D03*
X140794080Y-86577780D03*
X141325600Y-85595460D03*
X140937321Y-85207181D03*
X156356539Y-85925670D03*
X156184600Y-87744300D03*
X156184600Y-84520900D03*
X149048625Y-77543450D03*
X147232609Y-77788852D03*
X143044743Y-87898915D03*
X147193000Y-81038700D03*
X147269200Y-82715100D03*
X154249160Y-82635980D03*
X154452320Y-81045900D03*
X140259051Y-77126471D03*
X140995400Y-77126471D03*
X141579600Y-77126471D03*
X142265400Y-77126471D03*
X143285241Y-89608581D03*
X160476682Y-81877739D03*
X149860000Y-81216500D03*
X145566766Y-78095949D03*
X146441545Y-83571879D03*
X151700102Y-78199460D03*
X153568400Y-80962500D03*
X159360531Y-82275299D03*
X159497591Y-84587114D03*
X150432769Y-82654655D03*
X158993107Y-83825039D03*
X150444125Y-83710787D03*
X145459259Y-85184359D03*
X143130417Y-86668312D03*
X145110200Y-87922100D03*
X146735800Y-86982300D03*
D15*
X140937321Y-85207181D02*
X140937321Y-82188979D01*
X140937321Y-82188979D02*
X141503400Y-81622900D01*
D16*
X148310121Y-76354382D02*
X148310121Y-76424901D01*
D15*
X155923824Y-80813500D02*
X155570271Y-80813500D01*
X155570271Y-80813500D02*
X155194000Y-80437229D01*
X155194000Y-80437229D02*
X155194000Y-79588701D01*
X155194000Y-79588701D02*
X151964931Y-76359633D01*
X151964931Y-76359633D02*
X151967111Y-76357453D01*
X151967111Y-76357453D02*
X148356347Y-76357453D01*
X148299510Y-76414290D02*
X148310121Y-76424901D01*
X148310121Y-76424901D02*
X148310121Y-77800679D01*
X148310121Y-77800679D02*
X147254679Y-78856122D01*
X147254679Y-78856122D02*
X146945417Y-78546860D01*
X144221200Y-77330300D02*
X143244688Y-77330300D01*
X143244688Y-77330300D02*
X142728786Y-77846202D01*
X142728786Y-77846202D02*
X142391553Y-77846202D01*
X144221200Y-77330300D02*
X145728857Y-77330300D01*
X145728857Y-77330300D02*
X146445419Y-78046862D01*
X146445419Y-78046862D02*
X146695418Y-78296861D01*
X157676346Y-79709861D02*
X157426347Y-79959860D01*
X157962600Y-79423607D02*
X157676346Y-79709861D01*
X157962600Y-76060300D02*
X157962600Y-79423607D01*
X141390293Y-86584973D02*
X141036740Y-86584973D01*
X141036740Y-86584973D02*
X140995400Y-86626313D01*
X140995400Y-86626313D02*
X140995400Y-86741000D01*
X140794080Y-86577780D02*
X140832180Y-86577780D01*
X140832180Y-86577780D02*
X140995400Y-86741000D01*
X141390293Y-86584973D02*
X141390293Y-86231420D01*
X141390293Y-86231420D02*
X141325600Y-86166727D01*
X141325600Y-86166727D02*
X141325600Y-85595460D01*
X140937321Y-85207181D02*
X140937321Y-86434539D01*
X140937321Y-86434539D02*
X140794080Y-86577780D01*
X152247600Y-79565500D02*
X151997601Y-79315501D01*
X151997601Y-79315501D02*
X147714058Y-79315501D01*
X147714058Y-79315501D02*
X146945417Y-78546860D01*
X146945417Y-78546860D02*
X146695418Y-78296861D01*
X156184600Y-87744300D02*
X156184600Y-87695850D01*
X156184600Y-87695850D02*
X156353339Y-87527111D01*
X156353339Y-87527111D02*
X156353339Y-85928870D01*
X156353339Y-85928870D02*
X156356539Y-85925670D01*
X156356539Y-85361091D02*
X156402496Y-85315134D01*
X156184600Y-84520900D02*
X156184600Y-85097238D01*
X156356539Y-85925670D02*
X156356539Y-85361091D01*
X156184600Y-85097238D02*
X156402496Y-85315134D01*
X136220200Y-78676500D02*
X136573753Y-78676500D01*
X136573753Y-78676500D02*
X136586453Y-78663800D01*
X136586453Y-78663800D02*
X138634849Y-78663800D01*
X138634849Y-78663800D02*
X140730349Y-80759300D01*
X140730349Y-80759300D02*
X140741400Y-80759300D01*
D17*
X140937321Y-85207181D02*
X140687322Y-85457180D01*
X140982700Y-85509100D02*
X141239240Y-85509100D01*
X141239240Y-85509100D02*
X141325600Y-85595460D01*
X140794080Y-85697720D02*
X140982700Y-85509100D01*
X140794080Y-85760560D02*
X140794080Y-85697720D01*
X140794080Y-85760560D02*
X140868400Y-85834880D01*
X140868400Y-85834880D02*
X141088720Y-86055200D01*
X140794080Y-86577780D02*
X140794080Y-86224227D01*
X140794080Y-86224227D02*
X140868400Y-86149907D01*
X140868400Y-86149907D02*
X140868400Y-85834880D01*
X141160500Y-86296500D02*
X141160500Y-86055200D01*
X141160500Y-86055200D02*
X141160500Y-85760560D01*
X141088720Y-86055200D02*
X141160500Y-86055200D01*
X141129219Y-86327781D02*
X141160500Y-86296500D01*
X140794080Y-86577780D02*
X141044079Y-86327781D01*
X141044079Y-86327781D02*
X141129219Y-86327781D01*
X141828956Y-86098816D02*
X141643100Y-85912960D01*
X141640292Y-86334974D02*
X141640292Y-85915768D01*
X141643100Y-85912960D02*
X141325600Y-85595460D01*
X141390293Y-86584973D02*
X141640292Y-86334974D01*
X141640292Y-85915768D02*
X141643100Y-85912960D01*
X141963026Y-86098816D02*
X141828956Y-86098816D01*
X140794080Y-85760560D02*
X141160500Y-85760560D01*
X141160500Y-85760560D02*
X141325600Y-85595460D01*
X147142200Y-90690700D02*
X143764000Y-90690700D01*
X143764000Y-90690700D02*
X143332200Y-90258900D01*
X149072600Y-90614500D02*
X147218400Y-90614500D01*
X147218400Y-90614500D02*
X147142200Y-90690700D01*
X142925800Y-90258900D02*
X142011400Y-89344500D01*
X142011400Y-89344500D02*
X142011400Y-87604600D01*
X142978647Y-90258900D02*
X142925800Y-90258900D01*
D18*
X143332200Y-90258900D02*
X142978647Y-90258900D01*
X145408730Y-86118700D02*
X141982910Y-86118700D01*
X141982910Y-86118700D02*
X141963026Y-86098816D01*
D15*
X154064600Y-76060300D02*
X155422600Y-76060300D01*
X153698672Y-75694372D02*
X154064600Y-76060300D01*
X147999249Y-75694372D02*
X153698672Y-75694372D01*
X147232609Y-76461012D02*
X147999249Y-75694372D01*
X147232609Y-77788852D02*
X147232609Y-76461012D01*
X142265400Y-77126471D02*
X142899771Y-76492100D01*
X142899771Y-76492100D02*
X147232609Y-76492100D01*
X147232609Y-76492100D02*
X147232609Y-77788852D01*
X154452320Y-81045900D02*
X154452320Y-80021866D01*
X151973904Y-77543450D02*
X149402178Y-77543450D01*
X154452320Y-80021866D02*
X151973904Y-77543450D01*
X149402178Y-77543450D02*
X149048625Y-77543450D01*
X141579600Y-77126471D02*
X142265400Y-77126471D01*
D18*
X143285241Y-88139413D02*
X143044743Y-87898915D01*
X143294742Y-87648916D02*
X143044743Y-87898915D01*
X144215358Y-86728300D02*
X143294742Y-87648916D01*
X146206878Y-86728300D02*
X144215358Y-86728300D01*
X143285241Y-89608581D02*
X143285241Y-88139413D01*
X147269200Y-85665978D02*
X146206878Y-86728300D01*
X147269200Y-82715100D02*
X147269200Y-85665978D01*
D15*
X154452320Y-82432820D02*
X154249160Y-82635980D01*
X154452320Y-81045900D02*
X154452320Y-82432820D01*
X147269200Y-82715100D02*
X147269200Y-81114900D01*
X147269200Y-81114900D02*
X147193000Y-81038700D01*
X140259051Y-77126471D02*
X141579600Y-77126471D01*
D16*
X149860000Y-81216500D02*
X152069011Y-83425511D01*
X158756602Y-82955611D02*
X159398810Y-82955611D01*
X160226683Y-82127738D02*
X160476682Y-81877739D01*
X159398810Y-82955611D02*
X160226683Y-82127738D01*
X158286702Y-83425511D02*
X158756602Y-82955611D01*
X152069011Y-83425511D02*
X158286702Y-83425511D01*
X146441545Y-78970728D02*
X145816765Y-78345948D01*
X145816765Y-78345948D02*
X145566766Y-78095949D01*
X146441545Y-83571879D02*
X146441545Y-78970728D01*
X151714507Y-78199460D02*
X151700102Y-78199460D01*
X151725401Y-78210354D02*
X151714507Y-78199460D01*
X151950101Y-78449459D02*
X151700102Y-78199460D01*
X153568400Y-80067758D02*
X151950101Y-78449459D01*
X153568400Y-80962500D02*
X153568400Y-80067758D01*
X153860500Y-83108800D02*
X153568400Y-82816700D01*
X158164288Y-83117989D02*
X154023727Y-83117989D01*
X159006978Y-82275299D02*
X158164288Y-83117989D01*
X153568400Y-82816700D02*
X153568400Y-80962500D01*
X154014538Y-83108800D02*
X153860500Y-83108800D01*
X159360531Y-82275299D02*
X159006978Y-82275299D01*
X154023727Y-83117989D02*
X154014538Y-83108800D01*
X160502600Y-90284300D02*
X158489142Y-88270842D01*
X158489142Y-86143705D02*
X158497785Y-86135062D01*
X158489142Y-88270842D02*
X158489142Y-86143705D01*
X158497785Y-86135062D02*
X158497785Y-85586920D01*
X158497785Y-85586920D02*
X159497591Y-84587114D01*
X159497591Y-83462691D02*
X159497591Y-84233561D01*
X158882527Y-83259622D02*
X159294522Y-83259622D01*
X151507635Y-83729521D02*
X158412628Y-83729521D01*
X150432769Y-82654655D02*
X151507635Y-83729521D01*
X158412628Y-83729521D02*
X158882527Y-83259622D01*
X159294522Y-83259622D02*
X159497591Y-83462691D01*
X159497591Y-84233561D02*
X159497591Y-84587114D01*
X158743108Y-84075038D02*
X158993107Y-83825039D01*
X157962600Y-90284300D02*
X157962600Y-85402592D01*
X158743108Y-84622084D02*
X158743108Y-84075038D01*
X157962600Y-85402592D02*
X158743108Y-84622084D01*
X158784614Y-84033532D02*
X158993107Y-83825039D01*
X150444125Y-83710787D02*
X150766870Y-84033532D01*
X150766870Y-84033532D02*
X158784614Y-84033532D01*
X136880600Y-76060300D02*
X137882600Y-76060300D01*
X143521860Y-85184359D02*
X145459259Y-85184359D01*
X137882600Y-76060300D02*
X142119550Y-80297250D01*
X142119550Y-83782049D02*
X143521860Y-85184359D01*
X142119550Y-80297250D02*
X142119550Y-83782049D01*
X136880600Y-76060300D02*
X136880600Y-76154008D01*
X136880600Y-90284300D02*
X138634315Y-90284300D01*
X138634315Y-90284300D02*
X142000304Y-86918311D01*
X142000304Y-86918311D02*
X142880418Y-86918311D01*
X142880418Y-86918311D02*
X143130417Y-86668312D01*
X146735800Y-86982300D02*
X145796000Y-87922100D01*
X145796000Y-87922100D02*
X145110200Y-87922100D01*
M02*
